<svg width="256" height="256" viewBox="0 0 256 256" fill="none" xmlns="http://www.w3.org/2000/svg">
  <defs>
    <linearGradient id="sGradient" x1="120" y1="58" x2="206" y2="180" gradientUnits="userSpaceOnUse">
      <stop stop-color="#78AFFF"/>
      <stop offset="1" stop-color="#2E62B8"/>
    </linearGradient>
    <linearGradient id="bgGradient" x1="0" y1="0" x2="256" y2="256" gradientUnits="userSpaceOnUse">
      <stop stop-color="#07111F"/>
      <stop offset="1" stop-color="#102443"/>
    </linearGradient>
  </defs>
  <rect width="256" height="256" rx="54" fill="url(#bgGradient)"/>
  <path d="M31 180L86 70L142 180H110L86 130L62 180H31Z" fill="#F7FAFF"/>
  <path d="M75 156H100L112 180H87L75 156Z" fill="#F7FAFF" opacity="0.96"/>
  <path d="M127 70H211L196 100H144C133 100 126 106 126 114C126 122 133 127 145 127H169C200 127 218 144 218 171C218 198 198 215 166 215H77L92 185H166C179 185 186 180 186 171C186 162 179 157 166 157H143C113 157 94 140 94 115C94 89 115 70 127 70Z" fill="url(#sGradient)"/>
  <path d="M32 196H64V215H32V196Z" fill="#F7FAFF" opacity="0.95"/>
</svg>
